<mxfile host="app.diagrams.net" modified="2024-06-29T12:39:46.941Z" agent="Mozilla/5.0 (Windows NT 10.0; Win64; x64) AppleWebKit/537.36 (KHTML, like Gecko) Chrome/126.0.0.0 Safari/537.36" version="24.6.4" etag="BUJdtzvJIB3Biz8qQ_PW" type="github">
  <diagram name="PÃ¡gina-1" id="CZNhuLc1jmrK8ITjJVWx">
    <mxGraphModel>
      <root>
        <mxCell id="0" />
        <mxCell id="1" parent="0" />
      </root>
    </mxGraphModel>
  </diagram>
</mxfile>
